<?xml version="1.0" encoding="UTF-8" standalone="no"?>
<!DOCTYPE svg PUBLIC "-//W3C//DTD SVG 1.1//EN" "http://www.w3.org/Graphics/SVG/1.1/DTD/svg11.dtd">
<svg width="100%" height="100%" viewBox="0 0 104 39" version="1.1" xmlns="http://www.w3.org/2000/svg" xmlns:xlink="http://www.w3.org/1999/xlink" xml:space="preserve" xmlns:serif="http://www.serif.com/" style="fill-rule:evenodd;clip-rule:evenodd;stroke-linejoin:round;stroke-miterlimit:2;">
    <g transform="matrix(4.15746,0,0,4.15746,24.8509,33.8386)">
        <g>
            <g transform="matrix(10,0,0,10,0,0)">
                <path d="M0.11,0C0.103,0 0.098,-0.002 0.094,-0.007C0.09,-0.011 0.088,-0.016 0.088,-0.023L0.088,-0.676C0.088,-0.683 0.09,-0.689 0.094,-0.694C0.098,-0.698 0.103,-0.7 0.11,-0.7L0.354,-0.7C0.43,-0.7 0.49,-0.682 0.533,-0.647C0.576,-0.611 0.597,-0.559 0.597,-0.491C0.597,-0.44 0.584,-0.399 0.559,-0.366C0.534,-0.333 0.498,-0.311 0.453,-0.298L0.607,-0.031C0.609,-0.027 0.61,-0.023 0.61,-0.02C0.61,-0.015 0.608,-0.01 0.604,-0.006C0.6,-0.002 0.595,0 0.59,0L0.546,0C0.536,0 0.528,-0.002 0.523,-0.007C0.517,-0.012 0.512,-0.018 0.507,-0.027L0.36,-0.283L0.182,-0.283L0.182,-0.023C0.182,-0.016 0.18,-0.011 0.175,-0.007C0.17,-0.002 0.165,0 0.158,0L0.11,0ZM0.35,-0.365C0.451,-0.365 0.501,-0.407 0.501,-0.492C0.501,-0.577 0.451,-0.619 0.35,-0.619L0.182,-0.619L0.182,-0.365L0.35,-0.365Z" style="fill-rule:nonzero;"/>
            </g>
            <g transform="matrix(10,0,0,10,6.53,0)">
                <path d="M0.338,0.01C0.249,0.01 0.182,-0.014 0.136,-0.063C0.089,-0.111 0.064,-0.177 0.061,-0.261C0.06,-0.279 0.06,-0.308 0.06,-0.349C0.06,-0.39 0.06,-0.42 0.061,-0.439C0.064,-0.523 0.089,-0.589 0.136,-0.638C0.182,-0.686 0.249,-0.71 0.338,-0.71C0.397,-0.71 0.448,-0.7 0.489,-0.679C0.53,-0.658 0.562,-0.63 0.583,-0.596C0.604,-0.562 0.615,-0.526 0.617,-0.487C0.617,-0.481 0.615,-0.476 0.611,-0.473C0.606,-0.469 0.601,-0.467 0.595,-0.467L0.545,-0.467C0.538,-0.467 0.533,-0.469 0.529,-0.472C0.525,-0.475 0.522,-0.481 0.52,-0.489C0.509,-0.54 0.488,-0.576 0.459,-0.597C0.429,-0.618 0.389,-0.628 0.338,-0.628C0.222,-0.628 0.162,-0.563 0.157,-0.434C0.156,-0.416 0.156,-0.388 0.156,-0.351C0.156,-0.314 0.156,-0.285 0.157,-0.266C0.162,-0.137 0.222,-0.073 0.338,-0.073C0.388,-0.073 0.428,-0.083 0.458,-0.104C0.488,-0.125 0.509,-0.16 0.52,-0.211C0.522,-0.219 0.525,-0.225 0.529,-0.228C0.533,-0.231 0.538,-0.233 0.545,-0.233L0.595,-0.233C0.601,-0.233 0.606,-0.231 0.611,-0.228C0.615,-0.224 0.617,-0.219 0.617,-0.213C0.615,-0.174 0.604,-0.138 0.583,-0.104C0.562,-0.07 0.53,-0.043 0.489,-0.022C0.448,-0.001 0.397,0.01 0.338,0.01Z" style="fill-rule:nonzero;"/>
            </g>
        </g>
    </g>
</svg>
