<?xml version="1.0" encoding="UTF-8" standalone="no"?>
<!DOCTYPE svg PUBLIC "-//W3C//DTD SVG 1.1//EN" "http://www.w3.org/Graphics/SVG/1.1/DTD/svg11.dtd">
<svg width="100%" height="100%" viewBox="0 0 104 39" version="1.1" xmlns="http://www.w3.org/2000/svg" xmlns:xlink="http://www.w3.org/1999/xlink" xml:space="preserve" xmlns:serif="http://www.serif.com/" style="fill-rule:evenodd;clip-rule:evenodd;stroke-linejoin:round;stroke-miterlimit:2;">
    <path d="M27.87,29.295L27.87,14.698L25.49,14.698L25.49,12.353L27.87,12.353L27.87,11.547C27.87,9.167 28.395,6.997 29.831,5.632C30.985,4.512 32.526,4.057 33.961,4.057C35.046,4.057 35.991,4.302 36.587,4.546L36.166,6.927C35.711,6.717 35.081,6.542 34.206,6.542C31.581,6.542 30.915,8.852 30.915,11.442L30.915,12.352L35.011,12.352L35.011,14.697L30.915,14.697L30.915,29.295L27.87,29.295Z" style="fill:white;fill-opacity:0;fill-rule:nonzero;"/>
    <path d="M37.774,17.639C37.774,15.644 37.74,13.929 37.634,12.354L40.329,12.354L40.433,15.679L40.574,15.679C41.344,13.404 43.199,11.968 45.264,11.968C45.615,11.968 45.859,12.003 46.139,12.073L46.139,14.978C45.824,14.908 45.509,14.873 45.089,14.873C42.919,14.873 41.378,16.519 40.958,18.829C40.888,19.249 40.818,19.739 40.818,20.264L40.818,29.295L37.772,29.295L37.772,17.639L37.774,17.639Z" style="fill:white;fill-opacity:0;fill-rule:nonzero;"/>
    <path d="M52.79,7.593C52.825,8.643 52.056,9.483 50.83,9.483C49.745,9.483 48.976,8.643 48.976,7.593C48.976,6.508 49.781,5.667 50.9,5.667C52.056,5.667 52.79,6.508 52.79,7.593ZM49.36,29.295L49.36,12.354L52.44,12.354L52.44,29.295L49.36,29.295Z" style="fill:white;fill-opacity:0;fill-rule:nonzero;"/>
    <path d="M57.13,26.145C58.04,26.74 59.65,27.371 61.191,27.371C63.431,27.371 64.48,26.251 64.48,24.85C64.48,23.379 63.605,22.575 61.33,21.735C58.285,20.65 56.85,18.969 56.85,16.939C56.85,14.209 59.056,11.968 62.696,11.968C64.412,11.968 65.917,12.458 66.862,13.019L66.092,15.259C65.426,14.839 64.201,14.279 62.626,14.279C60.806,14.279 59.791,15.329 59.791,16.59C59.791,17.989 60.806,18.62 63.011,19.46C65.951,20.58 67.457,22.05 67.457,24.57C67.457,27.546 65.146,29.645 61.121,29.645C59.266,29.645 57.551,29.19 56.36,28.491L57.13,26.145Z" style="fill:white;fill-opacity:0;fill-rule:nonzero;"/>
    <path d="M83.485,28.665C82.68,29.085 80.895,29.644 78.62,29.644C73.509,29.644 70.184,26.179 70.184,20.998C70.184,15.782 73.754,12.002 79.285,12.002C81.105,12.002 82.716,12.457 83.556,12.877L82.856,15.258C82.121,14.838 80.966,14.452 79.286,14.452C75.4,14.452 73.301,17.322 73.301,20.858C73.301,24.778 75.821,27.193 79.182,27.193C80.932,27.193 82.086,26.738 82.961,26.353L83.485,28.665Z" style="fill:white;fill-opacity:0;fill-rule:nonzero;"/>
    <path d="M102.211,20.684C102.211,26.95 97.87,29.68 93.775,29.68C89.19,29.68 85.654,26.32 85.654,20.964C85.654,15.293 89.364,11.968 94.055,11.968C98.921,11.968 102.211,15.504 102.211,20.684ZM88.77,20.859C88.77,24.569 90.906,27.37 93.916,27.37C96.856,27.37 99.062,24.604 99.062,20.789C99.062,17.919 97.627,14.278 93.987,14.278C90.347,14.278 88.77,17.639 88.77,20.859Z" style="fill:white;fill-opacity:0;fill-rule:nonzero;"/>
    <path d="M4,24.629L6,24.629L6,12.629L4,12.629L4,24.629ZM8,28.629L10,28.629L10,8.629L8,8.629L8,28.629ZM0,20.629L2,20.629L2,16.629L0,16.629L0,20.629ZM12,24.629L14,24.629L14,12.629L12,12.629L12,24.629ZM16,16.629L16,20.629L18,20.629L18,16.629L16,16.629Z" style="fill:white;fill-opacity:0;fill-rule:nonzero;"/>
</svg>
